<svg width="1920" height="1080" viewBox="0 0 1920 1080" fill="none" xmlns="http://www.w3.org/2000/svg">
<g clip-path="url(#clip0_9_345)">
<rect width="1920" height="1080" fill="white"/>
<rect width="1920" height="1080" fill="url(#paint0_radial_9_345)"/>
<mask id="mask0_9_345" style="mask-type:luminance" maskUnits="userSpaceOnUse" x="0" y="0" width="1920" height="1080">
<rect width="1920" height="1080" fill="white"/>
</mask>
<g mask="url(#mask0_9_345)">
<g opacity="0.500191">
<g opacity="0.06" clip-path="url(#clip1_9_345)">
<path fill-rule="evenodd" clip-rule="evenodd" d="M1388.81 771.997L1307.11 914.993H1143.7L1062 771.997L1143.7 629H1307.11L1388.81 771.997Z" fill="black"/>
<path fill-rule="evenodd" clip-rule="evenodd" d="M1919.81 771.997L1838.11 914.993H1674.7L1593 771.997L1674.7 629H1838.11L1919.81 771.997Z" fill="black"/>
<path fill-rule="evenodd" clip-rule="evenodd" d="M1654.47 619.262L1572.77 762.259H1409.36L1327.66 619.262L1409.36 476.266H1572.77L1654.47 619.262Z" fill="black"/>
<path fill-rule="evenodd" clip-rule="evenodd" d="M1654.47 6.41856L1572.77 149.415H1409.36L1327.66 6.41856L1409.36 -136.578H1572.77L1654.47 6.41856Z" fill="black"/>
<path fill-rule="evenodd" clip-rule="evenodd" d="M326.809 1078.9L245.106 1221.89H81.7021L0 1078.9L81.7021 935.898H245.106L326.809 1078.9Z" fill="black"/>
<path fill-rule="evenodd" clip-rule="evenodd" d="M857.872 1078.9L776.17 1221.89H612.766L531.064 1078.9L612.766 935.898H776.17L857.872 1078.9Z" fill="black"/>
<path fill-rule="evenodd" clip-rule="evenodd" d="M1388.94 1078.9L1307.23 1221.89H1143.83L1062.13 1078.9L1143.83 935.898H1307.23L1388.94 1078.9Z" fill="black"/>
<path fill-rule="evenodd" clip-rule="evenodd" d="M1920 1078.9L1838.3 1221.89H1674.89L1593.19 1078.9L1674.89 935.898H1838.3L1920 1078.9Z" fill="black"/>
<path fill-rule="evenodd" clip-rule="evenodd" d="M1919.81 465.997L1838.11 608.993H1674.7L1593 465.997L1674.7 323H1838.11L1919.81 465.997Z" fill="black"/>
<path fill-rule="evenodd" clip-rule="evenodd" d="M1123.4 925.684L1041.7 1068.68H878.298L796.596 925.684L878.298 782.687H1041.7L1123.4 925.684Z" fill="black"/>
<path fill-rule="evenodd" clip-rule="evenodd" d="M1654.81 925.997L1573.11 1068.99H1409.7L1328 925.997L1409.7 783H1573.11L1654.81 925.997Z" fill="black"/>
<path fill-rule="evenodd" clip-rule="evenodd" d="M1388.81 159.997L1307.11 302.993H1143.7L1062 159.997L1143.7 16.9999H1307.11L1388.81 159.997Z" fill="black"/>
<path fill-rule="evenodd" clip-rule="evenodd" d="M1920 159.63L1838.3 302.626H1674.89L1593.19 159.63L1674.89 16.6327H1838.3L1920 159.63Z" fill="black"/>
</g>
<path fill-rule="evenodd" clip-rule="evenodd" d="M1654.74 926.122L1654.81 925.997L1573.11 783H1409.7L1328 925.997L1329.07 927.872L1410.7 785H1574.11L1654.74 926.122Z" fill="url(#paint1_radial_9_345)"/>
<path fill-rule="evenodd" clip-rule="evenodd" d="M1654.4 619.387L1654.47 619.262L1572.77 476.266H1409.36L1327.66 619.262L1328.73 621.137L1410.36 478.266H1573.77L1654.4 619.387Z" fill="url(#paint2_radial_9_345)"/>
<path fill-rule="evenodd" clip-rule="evenodd" d="M1388.74 160.122L1388.81 159.997L1307.11 16.9999H1143.7L1062 159.997L1063.07 161.872L1144.7 18.9999H1308.11L1388.74 160.122Z" fill="url(#paint3_radial_9_345)"/>
<path fill-rule="evenodd" clip-rule="evenodd" d="M1388.74 772.122L1388.81 771.997L1307.11 629H1143.7L1062 771.997L1063.07 773.872L1144.7 631H1308.11L1388.74 772.122Z" fill="url(#paint4_radial_9_345)"/>
<path fill-rule="evenodd" clip-rule="evenodd" d="M1919.74 772.122L1919.81 771.997L1838.11 629H1674.7L1593 771.997L1594.07 773.872L1675.7 631H1839.11L1919.74 772.122Z" fill="url(#paint5_radial_9_345)"/>
<path fill-rule="evenodd" clip-rule="evenodd" d="M1919.74 466.122L1919.81 465.997L1838.11 323H1674.7L1593 465.997L1594.07 467.872L1675.7 325H1839.11L1919.74 466.122Z" fill="url(#paint6_radial_9_345)"/>
</g>
</g>
</g>
<defs>
<radialGradient id="paint0_radial_9_345" cx="0" cy="0" r="1" gradientUnits="userSpaceOnUse" gradientTransform="translate(992.18 198.408) rotate(90) scale(747.098 1328.17)">
<stop stop-color="#4E4E4E"/>
<stop offset="1" stop-color="#383838"/>
</radialGradient>
<radialGradient id="paint1_radial_9_345" cx="0" cy="0" r="1" gradientUnits="userSpaceOnUse" gradientTransform="translate(1415.15 783) rotate(57.2555) scale(145.454 250.989)">
<stop stop-color="white" stop-opacity="0.283654"/>
<stop offset="1" stop-color="white" stop-opacity="0.01"/>
</radialGradient>
<radialGradient id="paint2_radial_9_345" cx="0" cy="0" r="1" gradientUnits="userSpaceOnUse" gradientTransform="translate(1414.81 476.266) rotate(57.2555) scale(145.454 250.989)">
<stop stop-color="white" stop-opacity="0.283654"/>
<stop offset="1" stop-color="white" stop-opacity="0.01"/>
</radialGradient>
<radialGradient id="paint3_radial_9_345" cx="0" cy="0" r="1" gradientUnits="userSpaceOnUse" gradientTransform="translate(1149.15 16.9999) rotate(57.2555) scale(145.454 250.989)">
<stop stop-color="white" stop-opacity="0.283654"/>
<stop offset="1" stop-color="white" stop-opacity="0.01"/>
</radialGradient>
<radialGradient id="paint4_radial_9_345" cx="0" cy="0" r="1" gradientUnits="userSpaceOnUse" gradientTransform="translate(1149.15 629) rotate(57.2555) scale(145.454 250.989)">
<stop stop-color="white" stop-opacity="0.283654"/>
<stop offset="1" stop-color="white" stop-opacity="0.01"/>
</radialGradient>
<radialGradient id="paint5_radial_9_345" cx="0" cy="0" r="1" gradientUnits="userSpaceOnUse" gradientTransform="translate(1680.15 629) rotate(57.2555) scale(145.454 250.989)">
<stop stop-color="white" stop-opacity="0.283654"/>
<stop offset="1" stop-color="white" stop-opacity="0.01"/>
</radialGradient>
<radialGradient id="paint6_radial_9_345" cx="0" cy="0" r="1" gradientUnits="userSpaceOnUse" gradientTransform="translate(1680.15 323) rotate(57.2555) scale(145.454 250.989)">
<stop stop-color="white" stop-opacity="0.283654"/>
<stop offset="1" stop-color="white" stop-opacity="0.01"/>
</radialGradient>
<clipPath id="clip0_9_345">
<rect width="1920" height="1080" fill="white"/>
</clipPath>
<clipPath id="clip1_9_345">
<rect width="1920" height="1080" fill="white"/>
</clipPath>
</defs>
</svg>
