<svg width="44" height="20" viewBox="0 0 44 20" fill="none" xmlns="http://www.w3.org/2000/svg">
<path fill-rule="evenodd" clip-rule="evenodd" d="M9.28544 12.4717H7.39637C4.60998 12.4717 4.09033 13.5689 4.09033 14.5754C4.09033 15.5998 4.72163 16.4828 6.27506 16.4828C8.71203 16.4828 9.28544 14.9131 9.28544 12.788V12.4717ZM13.1497 15.3199C13.1497 16.337 13.7218 18.1497 13.8686 19.2169H9.78924C9.67277 18.7677 9.57973 17.8614 9.55354 17.3982C8.90708 18.6195 7.44876 19.4785 5.20338 19.4785C1.36046 19.4785 0 17.1579 0 14.8847C0 12.1771 1.93731 9.94457 7.32401 9.94457H9.15036V8.85069C9.15036 7.62066 8.75546 6.66693 6.93255 6.66693C5.12895 6.66693 4.69269 7.55992 4.54796 8.66582H0.600284C0.765 6.29051 2.23573 3.88184 6.99665 3.88184C10.6673 3.88184 13.1497 5.10586 13.1497 8.83V15.3199Z" fill="white"/>
<path fill-rule="evenodd" clip-rule="evenodd" d="M15.4229 19.2198H19.5022V5.83496H15.4229V19.2198Z" fill="white"/>
<path fill-rule="evenodd" clip-rule="evenodd" d="M21.9412 9.99701C21.9412 7.5256 21.9378 5.93717 21.8813 4.90202H25.8552C25.9385 5.55274 25.9647 6.5078 25.9647 7.54028C26.4878 6.27821 27.8504 4.67043 29.7491 4.66309V8.65619C27.4658 8.60747 26.0212 9.6553 26.0212 13.1098V15.7107V19.2199H21.9412V9.99701Z" fill="white"/>
<path fill-rule="evenodd" clip-rule="evenodd" d="M39.0343 12.4717H37.1452C34.3588 12.4717 33.8392 13.5689 33.8392 14.5754C33.8392 15.5998 34.4705 16.4828 36.0239 16.4828C38.4602 16.4828 39.0343 14.9131 39.0343 12.788V12.4717ZM42.8986 15.3199C42.8986 16.337 43.4706 18.1497 43.6167 19.2169H39.5381C39.4216 18.7677 39.3286 17.8614 39.3024 17.3982C38.6559 18.6195 37.1976 19.4785 34.9522 19.4785C31.1093 19.4785 29.7488 17.1579 29.7488 14.8847C29.7488 12.1771 31.6862 9.94457 37.0722 9.94457H38.8985V8.85069C38.8985 7.62066 38.5043 6.66693 36.6814 6.66693C34.8778 6.66693 34.4415 7.55992 34.2968 8.66582H30.3491C30.5138 6.29051 31.9846 3.88184 36.7455 3.88184C40.4154 3.88184 42.8986 5.10586 42.8986 8.83V15.3199Z" fill="white"/>
<path fill-rule="evenodd" clip-rule="evenodd" d="M15.4228 4.04504H19.5021V0.522461H15.4228V4.04504Z" fill="white"/>
</svg>
