<svg width="96" height="20" viewBox="0 0 96 20" fill="none" xmlns="http://www.w3.org/2000/svg">
<path d="M18.7822 0.575684H14.8532V4.07991H18.7822V0.575684Z" fill="white"/>
<path fill-rule="evenodd" clip-rule="evenodd" d="M41.7039 17.6457C41.5143 16.7958 41.314 15.8978 41.314 15.2895V8.83853C41.314 5.1352 38.9247 3.92067 35.3873 3.92067C30.8013 3.92067 29.3877 6.31655 29.2284 8.67925H33.0313C33.1706 7.57754 33.5689 6.68821 35.3276 6.68821C37.0864 6.68821 37.4646 7.63727 37.4646 8.85844V9.94687H35.7059C30.5159 9.94687 28.651 12.1636 28.651 14.8581C28.651 17.1146 29.9584 19.4242 33.6618 19.4242C35.8254 19.4242 37.2257 18.5681 37.8496 17.3535C37.8761 17.8181 37.9624 18.7207 38.0752 19.1654H42.0042C41.9489 18.7439 41.8287 18.2051 41.7039 17.6457ZM35.7723 12.4556H37.5907V12.7675C37.5907 14.8846 37.0399 16.4443 34.6905 16.4443C33.1972 16.4443 32.5866 15.5483 32.5866 14.5462C32.5866 13.544 33.091 12.4556 35.7723 12.4556Z" fill="white"/>
<path fill-rule="evenodd" clip-rule="evenodd" d="M13.0529 17.6458C12.8633 16.7958 12.663 15.8979 12.663 15.2895V8.83858C12.663 5.13525 10.2738 3.92072 6.73634 3.92072C2.15032 3.92072 0.736684 6.3166 0.577401 8.6793H4.38028C4.51965 7.57759 4.91786 6.68826 6.67661 6.68826C8.43536 6.68826 8.81366 7.63732 8.81366 8.85849V9.94693H7.05491C1.86494 9.94693 0 12.1636 0 14.8582C0 17.1147 1.30745 19.4243 5.01078 19.4243C7.17437 19.4243 8.57473 18.5681 9.19859 17.3536C9.22514 17.8182 9.31142 18.7208 9.42424 19.1654H13.3532C13.2979 18.744 13.1777 18.2052 13.0529 17.6458ZM7.12128 12.4556H8.93976V12.7676C8.93976 14.8847 8.3889 16.4443 6.03948 16.4443C4.5462 16.4443 3.93562 15.5484 3.93562 14.5462C3.93562 13.5441 4.44001 12.4556 7.12128 12.4556Z" fill="white"/>
<path d="M18.7822 5.85852H14.8532V19.1653H18.7822V5.85852Z" fill="white"/>
<path d="M21.1315 9.99331C21.1315 7.5377 21.1315 5.95815 21.0718 4.92944H24.9012C24.9808 5.57321 25.0074 6.52891 25.0074 7.55097C25.5118 6.29662 26.8259 4.69716 28.651 4.69052V8.65932C26.4542 8.61286 25.0605 9.65484 25.0605 13.0861V19.1587H21.1315V9.99331Z" fill="white"/>
<path d="M90.3099 1.11182V3.70946H91.2683V1.11182H90.3099Z" fill="white"/>
<path d="M90.3099 6.15578V19.1188H91.2683V6.15578H90.3099Z" fill="white"/>
<path d="M95 19.1188V1.11182H94.0417V19.1188H95Z" fill="white"/>
<path fill-rule="evenodd" clip-rule="evenodd" d="M86.5774 16.5464H86.5269C86.3756 16.9331 86.1571 17.303 85.8712 17.656C85.5854 17.9923 85.2323 18.2949 84.812 18.5639C84.4085 18.833 83.9461 19.0431 83.4249 19.1944C82.9037 19.3458 82.332 19.4214 81.71 19.4214C80.3313 19.4214 79.2636 19.1272 78.507 18.5387C77.7505 17.9335 77.3722 17.0087 77.3722 15.7646C77.3722 15.008 77.5235 14.3943 77.8261 13.9235C78.1287 13.4359 78.507 13.0576 78.961 12.7886C79.4318 12.5028 79.9446 12.301 80.4994 12.1833C81.0711 12.0656 81.6175 11.9816 82.1387 11.9311L83.6267 11.805C84.316 11.7546 84.854 11.6789 85.2407 11.5781C85.6442 11.4604 85.9469 11.3091 86.1487 11.1241C86.3504 10.9223 86.4765 10.6701 86.5269 10.3675C86.5774 10.0649 86.6026 9.68658 86.6026 9.23262C86.6026 8.87955 86.5353 8.55169 86.4008 8.24905C86.2663 7.94641 86.0562 7.6774 85.7704 7.44202C85.4845 7.20663 85.1146 7.02169 84.6607 6.88718C84.2067 6.75267 83.6519 6.68542 82.9962 6.68542C81.8361 6.68542 80.8945 6.97125 80.1716 7.54289C79.4654 8.11454 79.0787 8.98042 79.0114 10.1405H78.0531C78.1203 8.71141 78.5743 7.64377 79.415 6.93762C80.2724 6.21465 81.483 5.85317 83.0466 5.85317C84.6102 5.85317 85.7451 6.16421 86.4513 6.7863C87.1743 7.39158 87.5357 8.1902 87.5357 9.18218V17.2777C87.5525 17.4627 87.5862 17.6308 87.6366 17.7821C87.687 17.9335 87.7711 18.0596 87.8888 18.1604C88.0065 18.2445 88.1746 18.2865 88.3932 18.2865C88.5613 18.2865 88.7967 18.2613 89.0994 18.2109V19.0179C88.8472 19.0852 88.5866 19.1188 88.3176 19.1188C87.9308 19.1188 87.6198 19.0683 87.3844 18.9675C87.1658 18.8666 86.9977 18.7321 86.88 18.5639C86.7623 18.3958 86.6783 18.2025 86.6278 17.9839C86.5942 17.7485 86.5774 17.4963 86.5774 17.2273V16.5464ZM86.5774 11.7546C86.342 12.0404 85.9805 12.2338 85.4929 12.3347C85.0222 12.4355 84.4925 12.5112 83.9041 12.5616L82.29 12.713C81.8192 12.7634 81.3485 12.8391 80.8777 12.9399C80.4069 13.024 79.9782 13.1753 79.5915 13.3939C79.2216 13.6125 78.919 13.9151 78.6836 14.3018C78.4482 14.6717 78.3305 15.1593 78.3305 15.7646C78.3305 16.7229 78.6331 17.4375 79.2384 17.9082C79.8437 18.3622 80.6759 18.5892 81.7352 18.5892C82.828 18.5892 83.6939 18.3958 84.3328 18.0091C84.9717 17.6056 85.4593 17.1516 85.7956 16.6472C86.1318 16.126 86.342 15.63 86.4261 15.1593C86.5269 14.6717 86.5774 14.3438 86.5774 14.1757V11.7546Z" fill="white"/>
<path d="M73.8971 6.98803H76.7217V6.15578H73.8971V2.12061H72.9387V6.15578H70.5429V6.98803H72.9387V16.0419C72.9051 16.7817 72.9892 17.3618 73.1909 17.7821C73.4095 18.2024 73.6953 18.5219 74.0484 18.7405C74.4015 18.9422 74.805 19.0683 75.259 19.1188C75.7297 19.1524 76.2089 19.1524 76.6965 19.1188V18.2865C76.2425 18.3033 75.839 18.2949 75.4859 18.2613C75.1497 18.2277 74.8554 18.1352 74.6032 17.9839C74.3679 17.8157 74.1913 17.5803 74.0736 17.2777C73.9559 16.9751 73.8971 16.5631 73.8971 16.0419V6.98803Z" fill="white"/>
<path fill-rule="evenodd" clip-rule="evenodd" d="M59.7601 12.7634V12.9147C59.7601 13.6713 59.861 14.3943 60.0627 15.0836C60.2645 15.773 60.5587 16.3782 60.9454 16.8994C61.3489 17.4207 61.8449 17.8326 62.4334 18.1352C63.0387 18.4379 63.7364 18.5892 64.5266 18.5892C65.8212 18.5892 66.8468 18.2529 67.6034 17.5804C68.36 16.891 68.8812 15.9411 69.1671 14.7305H70.1254C69.8396 16.2437 69.2175 17.4038 68.2592 18.2109C67.3176 19.0179 66.065 19.4214 64.5014 19.4214C63.5431 19.4214 62.7024 19.2533 61.9794 18.917C61.2733 18.5639 60.6764 18.0932 60.1888 17.5047C59.7181 16.8994 59.365 16.1933 59.1296 15.3863C58.8942 14.5624 58.7765 13.6797 58.7765 12.7382C58.7765 11.8303 58.8942 10.9644 59.1296 10.1405C59.3818 9.29988 59.7517 8.5685 60.2393 7.94641C60.7268 7.30751 61.3321 6.80311 62.0551 6.43322C62.7949 6.04652 63.6607 5.85317 64.6527 5.85317C65.5606 5.85317 66.3593 6.0213 67.0486 6.35756C67.7548 6.69383 68.3432 7.15619 68.814 7.74465C69.2848 8.3163 69.6378 8.98883 69.8732 9.76224C70.1254 10.5188 70.2515 11.3343 70.2515 12.2086C70.2515 12.2926 70.2431 12.3935 70.2263 12.5112V12.7634H59.7601ZM69.268 11.9311C69.2343 11.225 69.1166 10.5609 68.9149 9.93878C68.7131 9.29987 68.4105 8.74504 68.007 8.27427C67.6203 7.78669 67.1411 7.39998 66.5694 7.11416C66.0146 6.82833 65.3757 6.68542 64.6527 6.68542C63.8793 6.68542 63.1984 6.83674 62.6099 7.13938C62.0215 7.4252 61.5255 7.81191 61.122 8.29949C60.7184 8.77026 60.4074 9.32509 60.1888 9.964C59.9702 10.6029 59.8357 11.2586 59.7853 11.9311H69.268Z" fill="white"/>
<path fill-rule="evenodd" clip-rule="evenodd" d="M51.6927 1.11185H44.1772V19.1188H45.2869V10.9223H51.6927C52.7519 10.9223 53.5674 11.0653 54.139 11.3511C54.7275 11.6369 55.1562 12.0152 55.4252 12.486C55.6942 12.9567 55.854 13.4948 55.9044 14.1C55.9548 14.6885 55.9801 15.2854 55.9801 15.8907C55.9801 16.4959 55.9885 17.0844 56.0053 17.656C56.0389 18.2109 56.1734 18.6985 56.4088 19.1188H57.6446C57.5101 18.9507 57.4008 18.7405 57.3167 18.4883C57.2495 18.2361 57.199 17.9671 57.1654 17.6813C57.1318 17.3786 57.1149 17.0592 57.1149 16.7229V15.6889C57.1149 15.1004 57.0813 14.512 57.0141 13.9235C56.9468 13.335 56.7955 12.797 56.5601 12.3094C56.3247 11.8219 55.9632 11.4099 55.4757 11.0737C55.0049 10.7374 54.3576 10.5188 53.5337 10.418V10.3675C54.7443 10.1658 55.6858 9.65295 56.3583 8.8291C57.0477 7.98844 57.3924 6.96284 57.3924 5.75229C57.3924 4.878 57.241 4.14663 56.9384 3.55817C56.6526 2.9697 56.2491 2.49894 55.7279 2.14586C55.2066 1.77597 54.6014 1.51536 53.912 1.36404C53.2227 1.19591 52.4829 1.11185 51.6927 1.11185ZM53.5085 9.73702C52.9537 9.88834 52.3484 9.964 51.6927 9.964H45.2869V2.0702H51.6927C52.298 2.0702 52.878 2.13745 53.4329 2.27196C53.9877 2.40646 54.4753 2.62503 54.8956 2.92767C55.3159 3.23031 55.6522 3.62542 55.9044 4.113C56.1566 4.58377 56.2827 5.15542 56.2827 5.82795C56.2827 6.55092 56.165 7.173 55.9296 7.69421C55.6942 8.21542 55.3748 8.64416 54.9713 8.98042C54.5677 9.31669 54.0802 9.56889 53.5085 9.73702Z" fill="white"/>
</svg>
