<svg width="119" height="24" viewBox="0 0 119 24" fill="none" xmlns="http://www.w3.org/2000/svg">
<path d="M15.8472 18.4136C15.8472 19.6761 16.5365 21.9352 16.711 23.2641H11.794C11.6528 22.7076 11.5448 21.5781 11.5116 20.9967C10.7309 22.5166 8.9784 23.588 6.27076 23.588C1.63621 23.588 0 20.6977 0 17.8738C0 14.5017 2.33389 11.7276 8.8289 11.7276H11.0299V10.3654C11.0299 8.83721 10.5565 7.6495 8.35548 7.6495C6.15448 7.6495 5.65615 8.76246 5.48173 10.1412H0.722591C0.921927 7.18438 2.69103 4.18605 8.43023 4.18605C12.8571 4.18605 15.8472 5.70598 15.8472 10.3405V18.4136ZM11.1877 14.8671H8.91196C5.55648 14.8671 4.92525 16.2292 4.92525 17.4834C4.92525 18.7375 5.68937 19.8588 7.55814 19.8588C10.4983 19.8588 11.1877 17.907 11.1877 15.2575V14.8671Z" fill="#2978B5"/>
<path d="M18.588 6.61129H23.505V23.2641H18.588V6.61129Z" fill="#2978B5"/>
<path d="M26.4452 11.7857C26.4452 8.71263 26.4452 6.73588 26.3704 5.44851H31.1628C31.2625 6.25416 31.2957 7.45017 31.2957 8.72924C31.9269 7.15947 33.5714 5.15781 35.8555 5.1495V10.1163C33.1063 10.0581 31.3621 11.3621 31.3621 15.6561V23.2558H26.4452V11.7857Z" fill="#2978B5"/>
<path d="M51.7027 18.4136C51.7027 19.6761 52.392 21.9352 52.5664 23.2641H47.6495C47.5083 22.7076 47.4003 21.5781 47.3671 20.9967C46.5864 22.5166 44.8339 23.588 42.1262 23.588C37.4917 23.588 35.8555 20.6977 35.8555 17.8738C35.8555 14.5017 38.1894 11.7276 44.6844 11.7276H46.8854V10.3654C46.8854 8.83721 46.412 7.6495 44.211 7.6495C42.01 7.6495 41.5116 8.76246 41.3372 10.1412H36.5781C36.7774 7.18438 38.5465 4.18605 44.2857 4.18605C48.7126 4.18605 51.7027 5.70598 51.7027 10.3405V18.4136ZM47.0432 14.8671H44.7674C41.412 14.8671 40.7807 16.2292 40.7807 17.4834C40.7807 18.7375 41.5448 19.8588 43.4136 19.8588C46.3538 19.8588 47.0432 17.907 47.0432 15.2575V14.8671Z" fill="#2978B5"/>
<path d="M23.505 0H18.588V4.38538H23.505V0Z" fill="#2978B5"/>
<path fill-rule="evenodd" clip-rule="evenodd" d="M64.691 1.08643H55.2857V23.6213H56.6744V13.3638H64.691C66.0166 13.3638 67.0371 13.5427 67.7525 13.9004C68.4889 14.2581 69.0255 14.7315 69.3621 15.3206C69.6988 15.9098 69.8987 16.5831 69.9618 17.3406C70.0249 18.077 70.0565 18.824 70.0565 19.5814C70.0565 20.3389 70.067 21.0753 70.088 21.7907C70.1301 22.4851 70.2984 23.0953 70.593 23.6213H72.1395C71.9712 23.4109 71.8344 23.1479 71.7292 22.8323C71.6451 22.5167 71.5819 22.18 71.5399 21.8223C71.4978 21.4436 71.4767 21.0438 71.4767 20.623V19.3289C71.4767 18.5925 71.4347 17.8561 71.3505 17.1196C71.2663 16.3832 71.077 15.7099 70.7824 15.0997C70.4878 14.4895 70.0354 13.974 69.4252 13.5532C68.8361 13.1324 68.026 12.8589 66.995 12.7326V12.6695C68.51 12.417 69.6883 11.7752 70.5299 10.7442C71.3926 9.69218 71.8239 8.40868 71.8239 6.89373C71.8239 5.7996 71.6345 4.88432 71.2558 4.14789C70.8981 3.41145 70.3931 2.82231 69.7409 2.38045C69.0886 1.91754 68.3311 1.59141 67.4684 1.40204C66.6057 1.19163 65.6799 1.08643 64.691 1.08643ZM66.9634 11.8804C66.2691 12.0698 65.5116 12.1645 64.691 12.1645H56.6744V2.28576H64.691C65.4485 2.28576 66.1744 2.36992 66.8688 2.53825C67.5631 2.70658 68.1733 2.98011 68.6993 3.35885C69.2254 3.73759 69.6462 4.23205 69.9618 4.84224C70.2774 5.43139 70.4352 6.14678 70.4352 6.98842C70.4352 7.89318 70.2879 8.6717 69.9933 9.32397C69.6988 9.97624 69.299 10.5128 68.794 10.9336C68.289 11.3544 67.6788 11.67 66.9634 11.8804Z" fill="#666464"/>
<path d="M113.019 1.08643V4.33726H114.218V1.08643H113.019Z" fill="#666464"/>
<path d="M113.019 7.39872V23.6213H114.218V7.39872H113.019Z" fill="#666464"/>
<path d="M118.888 23.6213V1.08643H117.689V23.6213H118.888Z" fill="#666464"/>
<path fill-rule="evenodd" clip-rule="evenodd" d="M108.348 20.402H108.285C108.095 20.886 107.822 21.3489 107.464 21.7908C107.106 22.2116 106.664 22.5903 106.138 22.927C105.633 23.2636 105.055 23.5266 104.402 23.716C103.75 23.9054 103.035 24.0001 102.256 24.0001C100.531 24.0001 99.1948 23.6318 98.248 22.8954C97.3012 22.1379 96.8277 20.9807 96.8277 19.4236C96.8277 18.4768 97.0171 17.7088 97.3958 17.1197C97.7746 16.5095 98.248 16.036 98.8161 15.6994C99.4052 15.3417 100.047 15.0892 100.741 14.9419C101.457 14.7946 102.141 14.6894 102.793 14.6263L104.655 14.4685C105.518 14.4054 106.191 14.3107 106.675 14.1844C107.18 14.0372 107.559 13.8478 107.811 13.6163C108.064 13.3638 108.221 13.0482 108.285 12.6695C108.348 12.2908 108.379 11.8173 108.379 11.2492C108.379 10.8074 108.295 10.3971 108.127 10.0183C107.958 9.63959 107.695 9.30293 107.338 9.00836C106.98 8.71379 106.517 8.48234 105.949 8.31401C105.381 8.14568 104.687 8.06152 103.866 8.06152C102.414 8.06152 101.236 8.41921 100.331 9.13461C99.4473 9.85 98.9634 10.9336 98.8792 12.3854H97.6799C97.7641 10.597 98.3322 9.26085 99.3842 8.37713C100.457 7.47237 101.972 7.01999 103.929 7.01999C105.886 7.01999 107.306 7.40925 108.19 8.18776C109.095 8.94524 109.547 9.94469 109.547 11.1861V21.3173C109.568 21.5488 109.61 21.7592 109.673 21.9486C109.736 22.1379 109.842 22.2957 109.989 22.422C110.136 22.5272 110.347 22.5798 110.62 22.5798C110.83 22.5798 111.125 22.5482 111.504 22.4851V23.4951C111.188 23.5792 110.862 23.6213 110.525 23.6213C110.041 23.6213 109.652 23.5582 109.358 23.4319C109.084 23.3057 108.874 23.1374 108.726 22.927C108.579 22.7166 108.474 22.4746 108.411 22.2011C108.369 21.9065 108.348 21.5909 108.348 21.2542V20.402ZM108.348 14.4054C108.053 14.7631 107.601 15.005 106.991 15.1313C106.401 15.2575 105.739 15.3522 105.002 15.4153L102.982 15.6047C102.393 15.6678 101.804 15.7625 101.215 15.8888C100.626 15.994 100.089 16.1833 99.6051 16.4569C99.1422 16.7304 98.7635 17.1091 98.4689 17.5931C98.1744 18.056 98.0271 18.6662 98.0271 19.4236C98.0271 20.623 98.4058 21.5172 99.1633 22.1064C99.9207 22.6745 100.962 22.9585 102.288 22.9585C103.656 22.9585 104.739 22.7166 105.539 22.2326C106.338 21.7276 106.948 21.1595 107.369 20.5283C107.79 19.876 108.053 19.2553 108.158 18.6662C108.285 18.056 108.348 17.6457 108.348 17.4353V14.4054Z" fill="#666464"/>
<path d="M92.4789 8.44024H96.0138V7.39871H92.4789V2.34887H91.2796V7.39871H88.2812V8.44024H91.2796V19.7708C91.2375 20.6966 91.3427 21.4225 91.5952 21.9485C91.8687 22.4746 92.2264 22.8743 92.6683 23.1479C93.1101 23.4004 93.6151 23.5582 94.1832 23.6213C94.7724 23.6634 95.372 23.6634 95.9822 23.6213V22.5798C95.4141 22.6008 94.9091 22.5903 94.4673 22.5482C94.0465 22.5061 93.6782 22.3904 93.3626 22.201C93.0681 21.9906 92.8471 21.696 92.6998 21.3173C92.5526 20.9386 92.4789 20.4231 92.4789 19.7708V8.44024Z" fill="#666464"/>
<path fill-rule="evenodd" clip-rule="evenodd" d="M74.787 15.6678V15.8572C74.787 16.804 74.9132 17.7088 75.1657 18.5715C75.4182 19.4342 75.7864 20.1916 76.2704 20.8439C76.7754 21.4962 77.3961 22.0117 78.1325 22.3904C78.89 22.7692 79.7632 22.9585 80.7521 22.9585C82.3723 22.9585 83.6558 22.5377 84.6026 21.6961C85.5495 20.8334 86.2017 19.6446 86.5594 18.1296H87.7588C87.4011 20.0233 86.6225 21.4751 85.4232 22.4851C84.2449 23.4951 82.6774 24.0001 80.7206 24.0001C79.5212 24.0001 78.4692 23.7896 77.5644 23.3688C76.6807 22.927 75.9337 22.3378 75.3235 21.6014C74.7344 20.8439 74.2925 19.9602 73.998 18.9502C73.7034 17.9192 73.5561 16.8146 73.5561 15.6363C73.5561 14.5001 73.7034 13.4164 73.998 12.3854C74.3136 11.3334 74.7765 10.4181 75.3867 9.63959C75.9969 8.84003 76.7543 8.2088 77.6591 7.7459C78.5849 7.26196 79.6685 7.01999 80.9099 7.01999C82.0461 7.01999 83.0456 7.2304 83.9083 7.65122C84.792 8.07204 85.5284 8.65067 86.1176 9.3871C86.7067 10.1025 87.1486 10.9441 87.4431 11.912C87.7588 12.8589 87.9166 13.8793 87.9166 14.9735C87.9166 15.0787 87.906 15.2049 87.885 15.3522V15.6678H74.787ZM86.6857 14.6263C86.6436 13.7426 86.4963 12.9115 86.2438 12.1329C85.9913 11.3334 85.6126 10.639 85.1076 10.0499C84.6237 9.4397 84.024 8.95576 83.3086 8.59806C82.6142 8.24037 81.8147 8.06152 80.9099 8.06152C79.942 8.06152 79.0899 8.25089 78.3534 8.62962C77.617 8.98732 76.9963 9.47126 76.4913 10.0815C75.9863 10.6706 75.5971 11.3649 75.3235 12.1645C75.05 12.9641 74.8817 13.7847 74.8186 14.6263H86.6857Z" fill="#666464"/>
</svg>
