<svg width="141" height="29" viewBox="0 0 141 29" fill="none" xmlns="http://www.w3.org/2000/svg">
<g clip-path="url(#clip0_19_563)">
<path d="M1.82812 24V12.5625H5.19531C7.0599 12.5625 8.375 12.7969 9.14062 13.2656C9.90625 13.7292 10.2891 14.5391 10.2891 15.6953C10.2891 16.2266 10.2214 16.6823 10.0859 17.0625C9.95573 17.4375 9.75781 17.7552 9.49219 18.0156C9.22656 18.276 8.86458 18.4818 8.40625 18.6328C7.95312 18.7786 7.4349 18.8828 6.85156 18.9453C6.26823 19.0078 5.5625 19.0391 4.73438 19.0391H3V24H1.82812ZM3.04688 13.4531V18.1562H5.17188C5.76562 18.1562 6.26823 18.1354 6.67969 18.0938C7.09115 18.0469 7.46094 17.9714 7.78906 17.8672C8.11719 17.763 8.375 17.6198 8.5625 17.4375C8.75 17.2552 8.89062 17.0286 8.98438 16.7578C9.08333 16.4818 9.13281 16.1484 9.13281 15.7578C9.13281 15.3672 9.08333 15.0391 8.98438 14.7734C8.88542 14.5026 8.73958 14.2812 8.54688 14.1094C8.35938 13.9323 8.09375 13.7969 7.75 13.7031C7.40625 13.6094 7.02344 13.5443 6.60156 13.5078C6.17969 13.4714 5.65104 13.4531 5.01562 13.4531H3.04688ZM14.6328 15.8438C15.6589 15.8438 16.487 16.1979 17.1172 16.9062C17.7474 17.6094 18.0625 18.638 18.0625 19.9922C18.0625 21.3359 17.7526 22.3724 17.1328 23.1016C16.5182 23.8255 15.6823 24.1875 14.625 24.1875C13.5677 24.1875 12.7292 23.8281 12.1094 23.1094C11.4948 22.3854 11.1875 21.3542 11.1875 20.0156C11.1875 18.651 11.5026 17.6146 12.1328 16.9062C12.763 16.1979 13.5964 15.8438 14.6328 15.8438ZM14.625 16.6562C14.1875 16.6562 13.8125 16.7526 13.5 16.9453C13.1875 17.1328 12.9479 17.3932 12.7812 17.7266C12.6198 18.0599 12.5026 18.4115 12.4297 18.7812C12.3568 19.151 12.3203 19.5547 12.3203 19.9922C12.3203 20.3411 12.3411 20.6693 12.3828 20.9766C12.4245 21.2839 12.5 21.5885 12.6094 21.8906C12.7188 22.1875 12.8568 22.4427 13.0234 22.6562C13.1953 22.8698 13.4167 23.0417 13.6875 23.1719C13.9635 23.3021 14.2786 23.3672 14.6328 23.3672C14.9818 23.3672 15.2917 23.3021 15.5625 23.1719C15.8385 23.0417 16.0599 22.8724 16.2266 22.6641C16.3984 22.4505 16.5391 22.1953 16.6484 21.8984C16.7578 21.6016 16.8333 21.2995 16.875 20.9922C16.9167 20.6849 16.9375 20.3568 16.9375 20.0078C16.9375 19.6641 16.9141 19.3385 16.8672 19.0312C16.8255 18.724 16.75 18.4219 16.6406 18.125C16.5312 17.8281 16.3906 17.5755 16.2188 17.3672C16.0521 17.1536 15.8307 16.9818 15.5547 16.8516C15.2839 16.7214 14.974 16.6562 14.625 16.6562ZM21.5234 24L18.9453 16.0078H20.1328L22.0781 22.6172L22.9453 19.9766L24.25 16.0078H24.9844L26.2109 19.9688L27.0312 22.6094L29.1172 16.0078H30.2109L27.4922 24H26.5L24.5781 17.75L22.5156 24H21.5234ZM34.5625 15.8438C35.1042 15.8438 35.5807 15.9401 35.9922 16.1328C36.4089 16.3203 36.7422 16.5859 36.9922 16.9297C37.2422 17.2682 37.4297 17.6615 37.5547 18.1094C37.6797 18.5573 37.7422 19.0521 37.7422 19.5938C37.7422 19.7708 37.7344 19.9271 37.7188 20.0625H32.2578C32.2578 20.5156 32.3021 20.9375 32.3906 21.3281C32.4792 21.7135 32.612 22.0625 32.7891 22.375C32.9714 22.6823 33.2161 22.9245 33.5234 23.1016C33.8359 23.2786 34.1953 23.3672 34.6016 23.3672C35.1276 23.3672 35.5599 23.2474 35.8984 23.0078C36.237 22.763 36.4766 22.4219 36.6172 21.9844L37.4766 22.1719C37.3568 22.6146 37.1458 22.9922 36.8438 23.3047C36.5417 23.612 36.2031 23.8359 35.8281 23.9766C35.4531 24.112 35.0547 24.1823 34.6328 24.1875H34.6016C34.013 24.1875 33.4896 24.0729 33.0312 23.8438C32.5781 23.6146 32.2135 23.3047 31.9375 22.9141C31.6667 22.5182 31.4635 22.0755 31.3281 21.5859C31.1927 21.0911 31.125 20.5625 31.125 20C31.125 18.7552 31.4271 17.7526 32.0312 16.9922C32.6406 16.2266 33.4844 15.8438 34.5625 15.8438ZM36.6719 19.3359C36.6667 18.4818 36.4896 17.8203 36.1406 17.3516C35.7917 16.8828 35.2552 16.6484 34.5312 16.6484C34.1823 16.6484 33.8698 16.7188 33.5938 16.8594C33.3177 17 33.0885 17.1953 32.9062 17.4453C32.7292 17.6953 32.5885 17.9792 32.4844 18.2969C32.3802 18.6146 32.3125 18.9609 32.2812 19.3359H36.6719ZM40.4688 16.0078V17.5078C40.6146 17.1484 40.8255 16.8516 41.1016 16.6172C41.3776 16.3776 41.6589 16.2161 41.9453 16.1328C42.237 16.0443 42.5417 16 42.8594 16V17.0078C42.4271 17.0078 42.0521 17.0859 41.7344 17.2422C41.4219 17.3984 41.1771 17.6146 41 17.8906C40.8281 18.1667 40.7005 18.4661 40.6172 18.7891C40.5391 19.112 40.5 19.4635 40.5 19.8438V24H39.3906V16.0078H40.4688ZM47.1562 15.8438C47.6979 15.8438 48.1745 15.9401 48.5859 16.1328C49.0026 16.3203 49.3359 16.5859 49.5859 16.9297C49.8359 17.2682 50.0234 17.6615 50.1484 18.1094C50.2734 18.5573 50.3359 19.0521 50.3359 19.5938C50.3359 19.7708 50.3281 19.9271 50.3125 20.0625H44.8516C44.8516 20.5156 44.8958 20.9375 44.9844 21.3281C45.0729 21.7135 45.2057 22.0625 45.3828 22.375C45.5651 22.6823 45.8099 22.9245 46.1172 23.1016C46.4297 23.2786 46.7891 23.3672 47.1953 23.3672C47.7214 23.3672 48.1536 23.2474 48.4922 23.0078C48.8307 22.763 49.0703 22.4219 49.2109 21.9844L50.0703 22.1719C49.9505 22.6146 49.7396 22.9922 49.4375 23.3047C49.1354 23.612 48.7969 23.8359 48.4219 23.9766C48.0469 24.112 47.6484 24.1823 47.2266 24.1875H47.1953C46.6068 24.1875 46.0833 24.0729 45.625 23.8438C45.1719 23.6146 44.8073 23.3047 44.5312 22.9141C44.2604 22.5182 44.0573 22.0755 43.9219 21.5859C43.7865 21.0911 43.7188 20.5625 43.7188 20C43.7188 18.7552 44.0208 17.7526 44.625 16.9922C45.2344 16.2266 46.0781 15.8438 47.1562 15.8438ZM49.2656 19.3359C49.2604 18.4818 49.0833 17.8203 48.7344 17.3516C48.3854 16.8828 47.849 16.6484 47.125 16.6484C46.776 16.6484 46.4635 16.7188 46.1875 16.8594C45.9115 17 45.6823 17.1953 45.5 17.4453C45.3229 17.6953 45.1823 17.9792 45.0781 18.2969C44.974 18.6146 44.9062 18.9609 44.875 19.3359H49.2656ZM51.7344 20.0938C51.7344 18.776 52 17.7396 52.5312 16.9844C53.0625 16.224 53.8177 15.8438 54.7969 15.8438C55.9896 15.8438 56.7969 16.3151 57.2188 17.2578V12.4844H58.3359V24H57.4453L57.2969 22.6562C57.0938 23.125 56.7682 23.4974 56.3203 23.7734C55.8776 24.0495 55.3802 24.1875 54.8281 24.1875C53.8698 24.1875 53.1146 23.8151 52.5625 23.0703C52.0104 22.3203 51.7344 21.3281 51.7344 20.0938ZM54.9688 23.3672C55.2031 23.3672 55.4141 23.349 55.6016 23.3125C55.7891 23.2708 55.9922 23.1849 56.2109 23.0547C56.4297 22.9193 56.612 22.7396 56.7578 22.5156C56.9036 22.2865 57.0234 21.9661 57.1172 21.5547C57.2161 21.1432 57.2656 20.6589 57.2656 20.1016C57.2656 19.4245 57.1901 18.8359 57.0391 18.3359C56.8932 17.8359 56.6432 17.4323 56.2891 17.125C55.9349 16.8125 55.4896 16.6562 54.9531 16.6562C54.2917 16.6562 53.7786 16.9714 53.4141 17.6016C53.0495 18.2266 52.8672 19.0677 52.8672 20.125C52.8672 21.0729 53.0547 21.8516 53.4297 22.4609C53.8047 23.0651 54.3177 23.3672 54.9688 23.3672ZM67.2734 16.6562C67.0547 16.6562 66.8411 16.6875 66.6328 16.75C66.4297 16.8125 66.2214 16.9219 66.0078 17.0781C65.7995 17.2344 65.6172 17.4323 65.4609 17.6719C65.3047 17.9062 65.1771 18.2188 65.0781 18.6094C64.9792 18.9948 64.9297 19.4323 64.9297 19.9219C64.9297 22.2396 65.7161 23.3984 67.2891 23.3984C67.9557 23.3984 68.4792 23.0859 68.8594 22.4609C69.2448 21.8307 69.4375 20.9896 69.4375 19.9375C69.4375 18.9948 69.2396 18.2135 68.8438 17.5938C68.4479 16.9688 67.9245 16.6562 67.2734 16.6562ZM63.8516 24V12.3359H64.9688V15.3906V17.2422C65.1927 16.7839 65.526 16.4375 65.9688 16.2031C66.4115 15.9635 66.9141 15.8438 67.4766 15.8438C68.4453 15.8438 69.2005 16.2188 69.7422 16.9688C70.2891 17.7188 70.5625 18.7552 70.5625 20.0781C70.5625 21.3229 70.2865 22.3203 69.7344 23.0703C69.1875 23.8151 68.4115 24.1875 67.4062 24.1875C66.8281 24.1875 66.3099 24.0625 65.8516 23.8125C65.3984 23.5625 65.0755 23.2057 64.8828 22.7422L64.7344 24H63.8516ZM74.625 23.5L71.5625 16.0078H72.7031C72.7031 16.0078 72.8516 16.3906 73.1484 17.1562C73.4453 17.9167 73.8021 18.8307 74.2188 19.8984C74.6354 20.9661 74.9583 21.7839 75.1875 22.3516C75.6354 21.1849 76.4609 19.0703 77.6641 16.0078H78.7578C78.3984 16.9193 77.8802 18.2109 77.2031 19.8828C76.5312 21.5547 76.0833 22.6745 75.8594 23.2422C75.6719 23.7161 75.5078 24.099 75.3672 24.3906C75.2318 24.6875 75.0677 24.9844 74.875 25.2812C74.6823 25.5781 74.4844 25.8047 74.2812 25.9609C74.0833 26.1224 73.8438 26.2526 73.5625 26.3516C73.2812 26.4505 72.9661 26.5 72.6172 26.5C72.3411 26.5 72.0677 26.4635 71.7969 26.3906L71.9141 25.5078C72.1536 25.5443 72.3828 25.5625 72.6016 25.5625C73.4818 25.5625 74.0964 25.0495 74.4453 24.0234L74.625 23.5Z" fill="white"/>
<path fill-rule="evenodd" clip-rule="evenodd" d="M95.5389 4C95.6342 4 95.7288 4.00071 95.8228 4.00215L96.1027 4.00865C96.149 4.0101 96.1951 4.01174 96.2411 4.01357L96.5147 4.02679C96.6052 4.03195 96.695 4.03789 96.7841 4.0446L97.0492 4.0671L97.3098 4.09439C100.798 4.49544 103.048 6.22995 103.048 10.3449V18.6667C103.048 19.1362 103.139 19.7379 103.263 20.3797L103.35 20.8125L103.443 21.2511L103.634 22.1213L103.724 22.5409L103.805 22.942C103.855 23.2019 103.897 23.4454 103.925 23.6645H98.9478C98.8815 23.3954 98.8212 22.9989 98.7725 22.5921L98.7338 22.2436L98.7015 21.9065L98.6764 21.597C98.6693 21.5003 98.6636 21.4109 98.6593 21.3316C97.8712 22.8986 96.0906 24 93.3512 24C88.7143 24 87.0386 21.0924 87.0007 18.2101L87.0008 18.0055L87.0065 17.7987C87.1457 14.4676 89.5616 11.7749 95.9384 11.7749H98.1665V10.3723L98.1645 10.2017C98.1292 8.70765 97.6053 7.57125 95.4607 7.57125C93.591 7.57125 92.9256 8.39671 92.6587 9.5144L92.6254 9.66511C92.6202 9.69051 92.6152 9.71603 92.6104 9.74168L92.5834 9.89706L92.5601 10.0552C92.5564 10.0818 92.553 10.1084 92.5496 10.1352H87.7327L87.7395 10.04L87.7563 9.84964L87.7774 9.6594L87.803 9.46947C87.8077 9.43785 87.8125 9.40625 87.8175 9.37467L87.8501 9.18553L87.8875 8.99712C87.934 8.77781 87.9905 8.56034 88.0581 8.34594L88.1187 8.16295C88.1716 8.01113 88.2302 7.86105 88.2948 7.71315L88.3754 7.53675C89.3223 5.55008 91.4233 4 95.5389 4ZM132.614 4C132.709 4 132.803 4.00071 132.897 4.00215L133.177 4.00865C133.224 4.0101 133.27 4.01174 133.316 4.01357L133.589 4.02679C133.68 4.03195 133.77 4.03789 133.859 4.0446L134.124 4.0671L134.384 4.09439C137.873 4.49544 140.123 6.22995 140.123 10.3449V18.6667C140.123 19.1362 140.213 19.7379 140.337 20.3797L140.425 20.8125L140.518 21.2511L140.709 22.1213L140.798 22.5409L140.879 22.942C140.929 23.2019 140.971 23.4454 141 23.6645H136.022C135.937 23.3184 135.862 22.7619 135.808 22.2436L135.776 21.9065L135.751 21.597C135.744 21.5003 135.738 21.4109 135.734 21.3316C134.945 22.8986 133.165 24 130.425 24C125.789 24 124.113 21.0924 124.075 18.2101L124.075 18.0055L124.081 17.7987C124.22 14.4676 126.635 11.7749 133.013 11.7749H135.241V10.3723L135.239 10.2017C135.204 8.70765 134.679 7.57125 132.535 7.57125C130.666 7.57125 130 8.39671 129.733 9.5144L129.7 9.66511C129.695 9.69051 129.69 9.71603 129.685 9.74168L129.658 9.89706L129.635 10.0552C129.631 10.0818 129.628 10.1084 129.624 10.1352H124.807L124.814 10.04L124.831 9.84964L124.852 9.6594L124.878 9.46947C124.882 9.43785 124.887 9.40625 124.892 9.37467L124.925 9.18553L124.962 8.99712C125.009 8.77781 125.065 8.56034 125.133 8.34594L125.193 8.16295C125.246 8.01113 125.305 7.86105 125.369 7.71315L125.45 7.53675C126.397 5.55008 128.498 4 132.614 4ZM111.179 6.8V23.6H106.343V6.8H111.179ZM124.075 4.8V9.95705C121.268 9.89413 119.492 11.2474 119.492 15.7088V23.6H114.477L114.475 9.40897L114.468 8.01231L114.458 6.98171L114.443 6.23163L114.428 5.69803L114.403 5.10858H119.288C119.322 5.38842 119.349 5.71214 119.368 6.06876L119.386 6.43595L119.4 6.82265L119.41 7.22642L119.417 7.64484L119.421 8.07547L119.422 8.51587C120.066 6.88506 121.741 4.80862 124.075 4.8ZM98.3322 15.0133H96.0267C92.8877 15.0133 92.1059 16.2128 92.0042 17.4124L91.9962 17.5323C91.9953 17.5523 91.9945 17.5722 91.9938 17.5922L91.992 17.7116C91.992 19.0244 92.7624 20.1575 94.6583 20.1575C97.1885 20.1575 98.0726 18.7006 98.2802 16.5874L98.2995 16.3626C98.3024 16.3247 98.305 16.2867 98.3074 16.2484L98.3198 16.0167L98.3278 15.7806L98.3317 15.5405L98.3322 15.0133ZM135.407 15.0133H133.1C129.962 15.0133 129.18 16.2128 129.078 17.4124L129.07 17.5323C129.069 17.5523 129.068 17.5722 129.068 17.5922L129.066 17.7116C129.066 19.0244 129.837 20.1575 131.733 20.1575C134.262 20.1575 135.147 18.7006 135.355 16.5874L135.374 16.3626L135.389 16.1331C135.391 16.0945 135.393 16.0557 135.394 16.0167L135.402 15.7806L135.406 15.5405L135.407 15.0133ZM111.179 0V4.8H106.343V0H111.179Z" fill="white"/>
</g>
<defs>
<clipPath id="clip0_19_563">
<rect width="141" height="29" fill="white"/>
</clipPath>
</defs>
</svg>
